# xmcd CD database file generated by OrangeCD 6.5
#
# Track frame offsets:
#	150
#	17830
#	31903
#	45066
#	63450
#	82547
#	97143
#	109289
#	122990
#	142214
#	153280
#	182865
#	194118
#	210581
#	227157
#	261034
#	279534
#	301461
#	323214
#	340665
#
# Disc length: 4775 seconds
#
# Revision: 0
# Processed by: cddbd v1.5.2PL0 Copyright (c) Steve Scherf et al.
# Submitted via: OrangeCD 6.5
#
DISCID=1f12a514
DTITLE=Emmylou Harris - Live In 1978
DYEAR=2014
DGENRE=Country Rock
TTITLE0=Emmylou Harris with The Hot Band and Ricky Skaggs - Two More Bottles Of
TTITLE0=Wine
TTITLE1=Emmylou Harris with The Hot Band and Ricky Skaggs - Easy From Now On
TTITLE2=Emmylou Harris with The Hot Band and Ricky Skaggs - To Daddy
TTITLE3=Emmylou Harris with The Hot Band and Ricky Skaggs - Luxory Liner
TTITLE4=Emmylou Harris with The Hot Band and Ricky Skaggs - Even Cowgirls Get T
TTITLE4=he Blues
TTITLE5=Emmylou Harris with The Hot Band and Ricky Skaggs - My Songbird
TTITLE6=Emmylou Harris with The Hot Band and Ricky Skaggs - My Window Faces The
TTITLE6=South
TTITLE7=Emmylou Harris with The Hot Band and Ricky Skaggs - Tumbling Tumbleweed
TTITLE7=s
TTITLE8=Emmylou Harris with The Hot Band and Ricky Skaggs - Home
TTITLE9=Emmylou Harris with The Hot Band and Ricky Skaggs - Swing Low Sweet Cha
TTITLE9=riot
TTITLE10=Emmylou Harris with The Hot Band and Ricky Skaggs - I Ain't Living Lon
TTITLE10=g Like This
TTITLE11=Emmylou Harris with The Hot Band and Ricky Skaggs - The Angels Rejoice
TTITLE11=d Last Night
TTITLE12=Emmylou Harris with The Hot Band and Ricky Skaggs - Leaving Louisiana 
TTITLE12=In The Broad Daylight
TTITLE13=Emmylou Harris with The Hot Band and Ricky Skaggs - Hallelujah I'm Rea
TTITLE13=dy To Go
TTITLE14=Emmylou Harris with Ricky Skaggs and Roy Huskey Jr. - Could You Love M
TTITLE14=e One More Time/The Green Rolling Hills
TTITLE15=Emmylou Harris with Ricky Skaggs and Roy Huskey Jr. - I Believe Jesus 
TTITLE15=Loves Me
TTITLE16=Emmylou Harris with Ricky Skaggs and Roy Huskey Jr. - If I Needed You
TTITLE17=Emmylou Harris with Ricky Skaggs and Roy Huskey Jr. - Satan's Jewel Cr
TTITLE17=own
TTITLE18=Emmylou Harris with Ricky Skaggs and Roy Huskey Jr. - Keep On The Sunn
TTITLE18=y Side
TTITLE19=Emmylou Harris with Ricky Skaggs and Roy Huskey Jr. - Under The Weepin
TTITLE19=' Willow
EXTD=
EXTT0=
EXTT1=
EXTT2=
EXTT3=
EXTT4=
EXTT5=
EXTT6=
EXTT7=
EXTT8=
EXTT9=
EXTT10=
EXTT11=
EXTT12=
EXTT13=
EXTT14=
EXTT15=
EXTT16=
EXTT17=
EXTT18=
EXTT19=
PLAYORDER=
